<svg version="1.1" xmlns="http://www.w3.org/2000/svg" width="140" height="141">
<path d="M0 0 C4.91875371 2.8482311 8.18962787 6.91835141 11.0625 11.75 C12.70096534 18.79540098 12.24353074 25.06116901 8.6875 31.4375 C4.85070695 37.36708926 0.44681977 39.55636855 -6.3125 41.4375 C-13.05276074 42.25097974 -18.4385667 40.26636664 -24.0625 36.6875 C-28.95489515 31.79510485 -31.04851492 26.55252391 -31.625 19.75 C-31.51753879 13.97933311 -29.53270754 8.90498184 -25.6640625 4.60546875 C-18.44955245 -1.86868765 -9.1362193 -4.09372903 0 0 Z " fill="#117FCA" transform="translate(79.3125,51.5625)"/>
<path d="M0 0 C4.66956755 4.51330249 6.55247585 9.04747483 6.7734375 15.515625 C6.39219666 22.05691524 4.72374926 27.75870534 0.18359375 32.60546875 C-3.63584368 35.7691327 -7.09698808 36.79703832 -12.0390625 36.4765625 C-16.90125177 35.45734069 -20.48258975 33.13919085 -23.69921875 29.37890625 C-27.45697121 23.24783644 -27.24883546 15.92565364 -26.3125 9 C-24.3553035 3.78615686 -21.0022965 0.00627981 -16.3125 -3 C-10.53007429 -5.59212187 -4.67947565 -3.72289776 0 0 Z " fill="#B2B2B2" transform="translate(133.3125,55)"/>
<path d="M0 0 C4.09970458 2.60750441 7.09462701 5.67521489 8.80859375 10.2734375 C9.7576717 15.00952254 8.68394883 18.42395083 6.3203125 22.56640625 C3.39619031 26.71736834 -0.21255682 28.71948289 -4.91796875 30.32421875 C-12.36635657 31.20775165 -18.732273 30.7630282 -24.91796875 26.32421875 C-28.51155183 23.18939096 -30.59286421 21.12224967 -31.15625 16.2734375 C-31.33798668 10.73525117 -30.66309881 7.6766672 -26.91796875 3.32421875 C-19.18626831 -4.00055009 -9.31322223 -4.64845593 0 0 Z " fill="#127FCB" transform="translate(80.91796875,3.67578125)"/>
<path d="M0 0 C3.64056891 3.07696619 5.65117096 5.87143545 7.0625 10.4375 C6.98446035 14.88575995 6.39880954 18.21401945 4 22 C-2.10454178 27.86340604 -7.41532828 29.43115096 -15.78515625 29.33984375 C-21.52412843 28.73317233 -26.47892077 26.63211121 -30.5078125 22.42578125 C-33.47607896 17.97338156 -33.92847651 13.13944574 -33 8 C-30.14979969 2.40516236 -26.563795 -1.03253019 -20.6875 -3.25 C-12.72933348 -4.86861014 -6.92592274 -4.34467478 0 0 Z " fill="#B2B2B2" transform="translate(83,112)"/>
<path d="M0 0 C4.83443533 2.80547542 8.0698151 6.23257951 10 11.5 C12.05489802 19.46440868 10.96471748 25.83440969 7 33 C3.34638945 37.18781992 -0.27446491 38.8585627 -5.8125 39.3125 C-10.20360994 39.24804334 -12.61154946 37.84937886 -16 35 C-21.4464507 29.09967841 -22.46676961 23.85627914 -22.3125 16.0078125 C-21.69830177 10.09615457 -19.37770429 5.96013569 -14.9375 2.0625 C-9.91863663 -1.46138279 -5.78557195 -1.64500915 0 0 Z " fill="#B2B2B2" transform="translate(22,52)"/>
<path d="M0 0 C3.58552881 1.63687185 4.79315055 2.68972583 7 6 C7.86503368 13.04384566 6.0137265 18.17425134 2 24 C-2.15493636 28.38978059 -6.85777613 30.94184678 -12.82421875 31.94140625 C-16.7160688 32.0462137 -18.69717194 31.11380996 -22 29 C-24.57400622 25.54117915 -24.99182733 23.49853263 -25.0625 19.1875 C-23.91765727 12.95049221 -20.53452752 8.06062588 -15.66015625 4.09765625 C-10.28522393 0.57786236 -6.39369674 -0.97530967 0 0 Z " fill="#B2B2B2" transform="translate(29,6)"/>
<path d="M0 0 C6.82153986 2.68545682 11.892301 8.16782 15.375 14.5 C16.50130751 19.00523002 16.68733212 22.59409339 14.625 26.8125 C12.66135275 29.4558713 11.61480788 30.80506092 8.4375 31.8125 C1.78354339 32.17544309 -3.28973516 29.9034089 -8.375 25.6875 C-13.10706838 21.1628131 -15.1290937 17.46797395 -15.3125 10.875 C-15.29612442 7.37062529 -14.90831393 4.97416151 -13 2 C-8.71209743 -0.85860172 -5.03145438 -0.71771117 0 0 Z " fill="#B2B3B2" transform="translate(119,6)"/>
<path d="M0 0 C5.19004383 3.26604589 9.9006594 8.33020355 11.375 14.375 C12.1669331 22.94853665 12.1669331 22.94853665 9.375 26.375 C5.11890433 29.38540913 1.69458391 29.85100276 -3.31640625 29.08203125 C-10.06282185 27.01587013 -15.2205825 21.49311143 -18.69921875 15.53515625 C-20.38650221 11.59816151 -20.30244464 7.5616079 -19.625 3.375 C-14.1517988 -3.87329348 -7.70746083 -3.45506865 0 0 Z " fill="#B2B2B2" transform="translate(24.625,107.625)"/>
<path d="M0 0 C2.93423195 1.79646854 4.47205355 2.9441071 6 6 C6.85856481 11.91183198 6.06409788 16.18218616 2.6328125 21.07421875 C-1.37246755 25.79814953 -5.68503384 30.42467118 -12.05078125 31.2734375 C-16.0291176 31.45208473 -19.18895083 31.40616182 -22.5625 29.125 C-25.55068635 25.29399186 -25.69937046 23.16221722 -25.390625 18.42578125 C-24.23022944 11.21972479 -19.51993964 5.87760208 -13.8125 1.625 C-9.39952504 -0.67322328 -4.85127695 -0.83727622 0 0 Z " fill="#B2B2B2" transform="translate(129,105)"/>
<path d="M0 0 C1.72880982 -0.05449838 3.45812712 -0.09301688 5.1875 -0.125 C6.15042969 -0.14820313 7.11335938 -0.17140625 8.10546875 -0.1953125 C11.12812778 0.0086456 13.26769985 0.73125368 16 2 C12.91190305 3.76462683 11.76687864 4 8 4 C8 3.01 8 2.02 8 1 C5.36 1 2.72 1 0 1 C0 0.67 0 0.34 0 0 Z " fill="#1E7BC1" transform="translate(64,50)"/>
</svg>
